<svg xmlns="http://www.w3.org/2000/svg" xmlns:xlink="http://www.w3.org/1999/xlink"><symbol id="icon-arrow-big"><path d="M21.975 12.708l-9.61-9.61L14.897.564 28.833 14.5 14.898 28.436l-2.534-2.534 9.61-9.61H.168v-3.584h21.808z" fill="#3B3B3B"/></symbol><symbol id="icon-ddlist-arrow-active"><path d="M6 2.926L1.462 7.463.166 6.167 6 .333l5.834 5.834-1.296 1.296L6 2.926z" fill="#83C1FA"/></symbol><symbol id="icon-ddlist-arrow-def"><path d="M6 5.074L1.462.537.166 1.833 6 7.667l5.834-5.834L10.538.537 6 5.074z" fill="#fff"/></symbol><symbol id="icon-facebook-big"><path d="M25.167 41.375h8.958l3.583-14.334H25.167v-7.166c0-3.691 0-7.167 7.166-7.167h5.375V.668C36.54.514 32.13.167 27.471.167c-9.729 0-16.638 5.937-16.638 16.841v10.034H.083v14.333h10.75v30.458h14.334V41.375z" fill="#3C3C3C"/></symbol><symbol id="icon-mail-big"><path d="M3.75.75h64.5a3.583 3.583 0 013.583 3.583v57.334a3.583 3.583 0 01-3.583 3.583H3.75a3.583 3.583 0 01-3.583-3.583V4.333A3.583 3.583 0 013.75.75zm32.465 31.114L13.239 12.353l-4.64 5.46 27.663 23.49 27.165-23.507-4.687-5.422-22.521 19.49h-.004z" fill="#3C3C3C"/></symbol><symbol id="icon-telegram-big"><path d="M19.443 36.345L2.638 31.122c-3.633-1.107-3.653-3.601.814-5.392L68.93.517c3.801-1.543 5.954.409 4.723 5.297L62.505 58.253c-.78 3.735-3.034 4.627-6.162 2.903l-17.162-12.66-7.999 7.698c-.82.791-1.486 1.469-2.751 1.636-1.258.175-2.294-.2-3.054-2.28l-5.853-19.252-.081.054v-.007z" fill="#3C3C3C"/></symbol><symbol id="icon-them-switcher-dark"><path d="M11 17a6 6 0 110-12 6 6 0 010 12zM10 0h2v3h-2V0zm0 19h2v3h-2v-3zM2.515 3.929l1.414-1.414L6.05 4.636 4.636 6.05 2.515 3.93v-.001zM15.95 17.364l1.414-1.414 2.121 2.121-1.414 1.414-2.121-2.121zm2.121-14.85l1.414 1.415-2.121 2.121-1.414-1.414 2.121-2.121v-.001zM4.636 15.95l1.414 1.414-2.121 2.121-1.414-1.414 2.121-2.121zM22 10v2h-3v-2h3zM3 10v2H0v-2h3z" fill="#fff"/></symbol><symbol id="icon-them-switcher-light"><path d="M11 17a6 6 0 110-12 6 6 0 010 12zM10 0h2v3h-2V0zm0 19h2v3h-2v-3zM2.515 3.929l1.414-1.414L6.05 4.636 4.636 6.05 2.515 3.93v-.001zM15.95 17.364l1.414-1.414 2.121 2.121-1.414 1.414-2.121-2.121zm2.121-14.85l1.414 1.415-2.121 2.121-1.414-1.414 2.121-2.121v-.001zM4.636 15.95l1.414 1.414-2.121 2.121-1.414-1.414 2.121-2.121zM22 10v2h-3v-2h3zM3 10v2H0v-2h3z" fill="#F2C94C"/></symbol><symbol id="icon-video-play"><path d="M27 16L0 31.588V.413L27 16z" fill="#83C1FA"/></symbol><symbol id="icon-web-link"><path d="M7 3v2H2v11h11v-5h2v6a1 1 0 01-1 1H1a1 1 0 01-1-1V4a1 1 0 011-1h6zm11-3v9l-3.794-3.793-5.999 6-1.414-1.414 5.999-6L9 0h9z" fill="#fff"/></symbol></svg>