<svg width="32" height="32" viewBox="0 0 32 32" fill="none" xmlns="http://www.w3.org/2000/svg">
<g clip-path="url(#clip0_65_33)">
<path d="M31.6219 0.378854C31.1171 -0.125959 30.2987 -0.125959 29.7939 0.378854L0.379098 29.7935C-0.125715 30.2984 -0.125715 31.1168 0.379098 31.6216C0.631473 31.8741 0.962348 32.0002 1.29316 32.0002C1.62397 32.0002 1.95479 31.8741 2.20722 31.6215L31.6219 2.20685C32.1267 1.7021 32.1267 0.883666 31.6219 0.378854Z" fill="#83C1FA"/>
<path d="M31.6214 29.7935L2.20661 0.378853C1.70186 -0.125959 0.883359 -0.125959 0.378609 0.378853C-0.126203 0.883603 -0.126203 1.70204 0.378609 2.20685L29.7934 31.6216C30.0457 31.874 30.3766 32.0002 30.7074 32.0002C31.0382 32.0002 31.3691 31.874 31.6214 31.6217C32.1261 31.1168 32.1261 30.2983 31.6214 29.7935Z" fill="#83C1FA"/>
</g>
<defs>
<clipPath id="clip0_65_33">
<rect width="32" height="32" fill="white"/>
</clipPath>
</defs>
</svg>
