<svg width="74" height="36" viewBox="0 0 74 36" fill="none" xmlns="http://www.w3.org/2000/svg">
<path d="M5.4 5.4H11.916V1.8H1.44V27H5.4V16.596H10.512V12.996H5.4V5.4ZM26.127 27C25.731 26.064 25.695 25.164 25.695 23.94V20.052C25.695 17.424 25.047 15.516 23.067 14.688C24.831 13.86 25.659 12.168 25.659 9.576V7.596C25.659 3.708 23.895 1.8 19.791 1.8H13.815V27H17.775V16.74H19.143C20.943 16.74 21.735 17.604 21.735 19.944V23.904C21.735 25.956 21.879 26.352 22.095 27H26.127ZM19.683 5.4C21.087 5.4 21.699 6.192 21.699 7.992V10.476C21.699 12.492 20.799 13.14 19.323 13.14H17.775V5.4H19.683ZM31.9354 7.596C31.9354 5.796 32.7274 5.112 33.9874 5.112C35.2474 5.112 36.0394 5.796 36.0394 7.596V21.204C36.0394 23.004 35.2474 23.688 33.9874 23.688C32.7274 23.688 31.9354 23.004 31.9354 21.204V7.596ZM27.9754 20.952C27.9754 24.984 30.0994 27.288 33.9874 27.288C37.8754 27.288 39.9994 24.984 39.9994 20.952V7.848C39.9994 3.816 37.8754 1.512 33.9874 1.512C30.0994 1.512 27.9754 3.816 27.9754 7.848V20.952Z" fill="white"/>
<path d="M60.0011 2.2333C63.2897 -0.847204 68.3716 -0.744958 71.5397 2.56632C74.7065 5.87907 74.8157 11.1549 71.8701 14.5962L59.9983 27L48.1294 14.5962C45.1838 11.1549 45.2944 5.8703 48.4598 2.56632C51.6307 -0.740576 56.7028 -0.851586 60.0011 2.2333Z" fill="#83C1FA"/>
</svg>
